<svg xmlns="http://www.w3.org/2000/svg" viewBox="0 0 60 60" width="24" height="24" fill="currentColor">
  <!-- Slack logo - monochrome version -->
  <!-- Cyan pill (top left) -->
  <path d="M22,12 a6,6 0 1 1 6,-6 v6z M22,16 a6,6 0 0 1 0,12 h-16 a6,6 0 1 1 0,-12"/>

  <!-- Green pill (top right) -->
  <path d="M48,22 a6,6 0 1 1 6,6 h-6z M32,6 a6,6 0 1 1 12,0v16a6,6 0 0 1 -12,0z"/>

  <!-- Yellow pill (bottom right) -->
  <path d="M38,48 a6,6 0 1 1 -6,6 v-6z M54,32 a6,6 0 0 1 0,12 h-16 a6,6 0 1 1 0,-12"/>

  <!-- Red pill (bottom left) -->
  <path d="M12,38 a6,6 0 1 1 -6,-6 h6z M16,38 a6,6 0 1 1 12,0v16a6,6 0 0 1 -12,0z"/>
</svg>
