<svg xmlns="http://www.w3.org/2000/svg" viewBox="0 0 5760 320" preserveAspectRatio="none">
  <path class="mountain-layer mountain-far" d="M0,180 L240,100 L480,140 L720,80 L960,120 L1200,100 L1440,140 L1680,100 L1920,140 L2160,80 L2400,120 L2640,100 L2880,140 L3120,100 L3360,140 L3600,80 L3840,120 L4080,100 L4320,140 L4560,100 L4800,140 L5040,80 L5280,120 L5520,100 L5760,140 L5760,320 L0,320 Z" fill="currentColor" opacity="0.08"/>
  <path class="mountain-layer mountain-mid" d="M0,200 L220,120 L440,180 L660,140 L880,180 L1100,140 L1320,180 L1540,140 L1760,180 L1980,140 L2200,180 L2420,140 L2640,180 L2860,140 L3080,180 L3300,140 L3520,180 L3740,140 L3960,180 L4180,140 L4400,180 L4620,140 L4840,180 L5060,140 L5280,180 L5500,140 L5760,160 L5760,320 L0,320 Z" fill="currentColor" opacity="0.12"/>
  <path class="mountain-layer mountain-near" d="M0,220 L320,160 L640,220 L960,180 L1280,220 L1600,180 L1920,220 L2240,180 L2560,220 L2880,180 L3200,220 L3520,180 L3840,220 L4160,180 L4480,220 L4800,180 L5120,220 L5440,180 L5760,200 L5760,320 L0,320 Z" fill="currentColor" opacity="0.16"/>
</svg>