<svg xmlns="http://www.w3.org/2000/svg" viewBox="0 0 5760 320" preserveAspectRatio="none">
  <g class="forest-layer-ultra-far" fill="currentColor" opacity="0.02">
    <polygon points="40,138 41,110 42,138" />
    <polygon points="80,134 81,102 82,134" />
    <polygon points="120,147 123,119 126,147" />
    <polygon points="160,143 163,116 166,143" />
    <polygon points="200,132 201,106 202,132" />
    <polygon points="240,146 241,115 242,146" />
    <polygon points="280,136 283,111 286,136" />
    <polygon points="320,144 321,106 322,144" />
    <polygon points="360,135 361,102 362,135" />
    <polygon points="400,138 402,100 404,138" />
    <polygon points="440,140 441,111 442,140" />
    <polygon points="480,142 481,114 482,142" />
    <polygon points="520,141 522,113 524,141" />
    <polygon points="560,144 561,111 562,144" />
    <polygon points="600,132 602,104 604,132" />
    <polygon points="640,149 643,115 646,149" />
    <polygon points="680,136 683,100 686,136" />
    <polygon points="720,137 721,110 722,137" />
    <polygon points="760,137 761,103 762,137" />
    <polygon points="800,138 802,110 804,138" />
    <polygon points="840,141 843,102 846,141" />
    <polygon points="880,141 882,111 884,141" />
    <polygon points="920,138 923,107 926,138" />
    <polygon points="960,150 963,123 966,150" />
    <polygon points="1000,137 1003,107 1006,137" />
    <polygon points="1040,142 1042,112 1044,142" />
    <polygon points="1080,147 1083,114 1086,147" />
    <polygon points="1120,140 1123,108 1126,140" />
    <polygon points="1160,131 1161,105 1162,131" />
    <polygon points="1200,138 1202,103 1204,138" />
    <polygon points="1240,148 1241,121 1242,148" />
    <polygon points="1280,150 1281,115 1282,150" />
    <polygon points="1320,150 1322,110 1324,150" />
    <polygon points="1360,138 1361,99 1362,138" />
    <polygon points="1400,147 1401,118 1402,147" />
    <polygon points="1440,148 1443,115 1446,148" />
    <polygon points="1480,142 1483,104 1486,142" />
    <polygon points="1520,134 1521,98 1522,134" />
    <polygon points="1560,131 1561,91 1562,131" />
    <polygon points="1600,150 1601,122 1602,150" />
    <polygon points="1640,143 1643,113 1646,143" />
    <polygon points="1680,142 1682,115 1684,142" />
    <polygon points="1720,138 1723,99 1726,138" />
    <polygon points="1760,133 1763,108 1766,133" />
    <polygon points="1800,140 1803,107 1806,140" />
    <polygon points="1840,143 1842,115 1844,143" />
    <polygon points="1880,130 1882,100 1884,130" />
    <polygon points="1920,135 1923,102 1926,135" />
    <polygon points="1960,139 1963,111 1966,139" />
    <polygon points="2000,141 2001,110 2002,141" />
    <polygon points="2040,146 2043,116 2046,146" />
    <polygon points="2080,140 2083,115 2086,140" />
    <polygon points="2120,133 2121,93 2122,133" />
    <polygon points="2160,137 2162,101 2164,137" />
    <polygon points="2200,148 2201,122 2202,148" />
    <polygon points="2240,145 2241,118 2242,145" />
    <polygon points="2280,134 2283,107 2286,134" />
    <polygon points="2320,145 2323,116 2326,145" />
    <polygon points="2360,146 2362,116 2364,146" />
    <polygon points="2400,147 2401,109 2402,147" />
    <polygon points="2440,139 2443,108 2446,139" />
    <polygon points="2480,150 2483,113 2486,150" />
    <polygon points="2520,146 2522,110 2524,146" />
    <polygon points="2560,137 2561,98 2562,137" />
    <polygon points="2600,140 2601,108 2602,140" />
    <polygon points="2640,147 2643,122 2646,147" />
    <polygon points="2680,137 2683,105 2686,137" />
    <polygon points="2720,150 2721,125 2722,150" />
    <polygon points="2760,132 2761,106 2762,132" />
    <polygon points="2800,132 2802,106 2804,132" />
    <polygon points="2840,145 2842,113 2844,145" />
    <polygon points="2880,134 2883,103 2886,134" />
    <polygon points="2920,145 2921,105 2922,145" />
    <polygon points="2960,133 2961,95 2962,133" />
    <polygon points="3000,143 3003,115 3006,143" />
    <polygon points="3040,143 3042,107 3044,143" />
    <polygon points="3080,131 3083,92 3086,131" />
    <polygon points="3120,142 3121,114 3122,142" />
    <polygon points="3160,137 3161,102 3162,137" />
    <polygon points="3200,147 3201,116 3202,147" />
    <polygon points="3240,143 3241,104 3242,143" />
    <polygon points="3280,144 3282,114 3284,144" />
    <polygon points="3320,144 3321,112 3322,144" />
    <polygon points="3360,150 3361,122 3362,150" />
    <polygon points="3400,137 3401,112 3402,137" />
    <polygon points="3440,145 3442,115 3444,145" />
    <polygon points="3480,142 3481,102 3482,142" />
    <polygon points="3520,142 3521,116 3522,142" />
    <polygon points="3560,138 3562,113 3564,138" />
    <polygon points="3600,143 3602,104 3604,143" />
    <polygon points="3640,136 3641,96 3642,136" />
    <polygon points="3680,131 3681,97 3682,131" />
    <polygon points="3720,140 3723,114 3726,140" />
    <polygon points="3760,148 3761,122 3762,148" />
    <polygon points="3800,146 3803,106 3806,146" />
    <polygon points="3840,146 3841,116 3842,146" />
    <polygon points="3880,132 3881,105 3882,132" />
    <polygon points="3920,137 3923,110 3926,137" />
    <polygon points="3960,148 3961,111 3962,148" />
    <polygon points="4000,149 4003,117 4006,149" />
    <polygon points="4040,132 4043,106 4046,132" />
    <polygon points="4080,148 4083,110 4086,148" />
    <polygon points="4120,136 4122,101 4124,136" />
    <polygon points="4160,138 4161,103 4162,138" />
    <polygon points="4200,150 4201,113 4202,150" />
    <polygon points="4240,140 4242,106 4244,140" />
    <polygon points="4280,144 4281,117 4282,144" />
    <polygon points="4320,147 4321,119 4322,147" />
    <polygon points="4360,138 4363,107 4366,138" />
    <polygon points="4400,132 4402,103 4404,132" />
    <polygon points="4440,139 4442,107 4444,139" />
    <polygon points="4480,147 4482,117 4484,147" />
    <polygon points="4520,150 4523,116 4526,150" />
    <polygon points="4560,147 4563,122 4566,147" />
    <polygon points="4600,133 4603,99 4606,133" />
    <polygon points="4640,133 4642,104 4644,133" />
    <polygon points="4680,147 4683,119 4686,147" />
    <polygon points="4720,139 4722,110 4724,139" />
    <polygon points="4760,140 4763,109 4766,140" />
    <polygon points="4800,150 4803,119 4806,150" />
    <polygon points="4840,145 4843,112 4846,145" />
    <polygon points="4880,132 4881,99 4882,132" />
    <polygon points="4920,131 4922,93 4924,131" />
    <polygon points="4960,134 4962,109 4964,134" />
    <polygon points="5000,144 5001,111 5002,144" />
    <polygon points="5040,130 5043,92 5046,130" />
    <polygon points="5080,134 5081,106 5082,134" />
    <polygon points="5120,148 5122,122 5124,148" />
    <polygon points="5160,134 5162,105 5164,134" />
    <polygon points="5200,141 5202,115 5204,141" />
    <polygon points="5240,136 5242,110 5244,136" />
    <polygon points="5280,133 5283,101 5286,133" />
    <polygon points="5320,143 5323,107 5326,143" />
    <polygon points="5360,135 5361,106 5362,135" />
    <polygon points="5400,130 5402,100 5404,130" />
    <polygon points="5440,140 5443,110 5446,140" />
    <polygon points="5480,137 5483,99 5486,137" />
    <polygon points="5520,133 5521,100 5522,133" />
    <polygon points="5560,145 5561,108 5562,145" />
    <polygon points="5600,144 5601,112 5602,144" />
    <polygon points="5640,137 5642,101 5644,137" />
    <polygon points="5680,136 5681,104 5682,136" />
    <polygon points="5720,138 5722,101 5724,138" />
    <polygon points="5760,141 5762,114 5764,141" />
    <rect x="0" y="160" width="5760" height="160" />
  </g>
  <g class="forest-layer-extreme-far" fill="currentColor" opacity="0.03">
    <polygon points="35,167 39,120 43,167" />
    <polygon points="75,153 77,108 79,153" />
    <polygon points="115,168 117,125 119,168" />
    <polygon points="155,153 157,110 159,153" />
    <polygon points="195,160 198,112 201,160" />
    <polygon points="235,166 239,118 243,166" />
    <polygon points="275,168 278,130 281,168" />
    <polygon points="315,151 318,110 321,151" />
    <polygon points="355,166 357,118 359,166" />
    <polygon points="395,163 398,122 401,163" />
    <polygon points="435,160 439,123 443,160" />
    <polygon points="475,153 479,108 483,153" />
    <polygon points="515,159 519,115 523,159" />
    <polygon points="555,162 558,114 561,162" />
    <polygon points="595,154 599,110 603,154" />
    <polygon points="635,162 638,121 641,162" />
    <polygon points="675,168 679,128 683,168" />
    <polygon points="715,167 718,123 721,167" />
    <polygon points="755,159 758,124 761,159" />
    <polygon points="795,168 798,127 801,168" />
    <polygon points="835,164 838,119 841,164" />
    <polygon points="875,156 879,107 883,156" />
    <polygon points="915,155 919,105 923,155" />
    <polygon points="955,166 958,129 961,166" />
    <polygon points="995,157 997,112 999,157" />
    <polygon points="1035,156 1037,112 1039,156" />
    <polygon points="1075,151 1077,112 1079,151" />
    <polygon points="1115,169 1118,127 1121,169" />
    <polygon points="1155,163 1158,126 1161,163" />
    <polygon points="1195,162 1199,121 1203,162" />
    <polygon points="1235,157 1238,107 1241,157" />
    <polygon points="1275,150 1279,111 1283,150" />
    <polygon points="1315,157 1318,119 1321,157" />
    <polygon points="1355,166 1359,126 1363,166" />
    <polygon points="1395,167 1397,118 1399,167" />
    <polygon points="1435,164 1437,122 1439,164" />
    <polygon points="1475,166 1478,127 1481,166" />
    <polygon points="1515,169 1518,124 1521,169" />
    <polygon points="1555,164 1559,116 1563,164" />
    <polygon points="1595,165 1599,125 1603,165" />
    <polygon points="1635,157 1638,108 1641,157" />
    <polygon points="1675,165 1679,122 1683,165" />
    <polygon points="1715,164 1718,122 1721,164" />
    <polygon points="1755,159 1759,122 1763,159" />
    <polygon points="1795,160 1798,118 1801,160" />
    <polygon points="1835,152 1839,107 1843,152" />
    <polygon points="1875,157 1877,118 1879,157" />
    <polygon points="1915,154 1919,107 1923,154" />
    <polygon points="1955,163 1957,122 1959,163" />
    <polygon points="1995,167 1998,119 2001,167" />
    <polygon points="2035,151 2038,102 2041,151" />
    <polygon points="2075,162 2078,121 2081,162" />
    <polygon points="2115,162 2119,127 2123,162" />
    <polygon points="2155,161 2157,111 2159,161" />
    <polygon points="2195,163 2198,119 2201,163" />
    <polygon points="2235,157 2238,115 2241,157" />
    <polygon points="2275,165 2278,122 2281,165" />
    <polygon points="2315,160 2318,125 2321,160" />
    <polygon points="2355,155 2359,108 2363,155" />
    <polygon points="2395,169 2397,120 2399,169" />
    <polygon points="2435,168 2438,133 2441,168" />
    <polygon points="2475,170 2477,135 2479,170" />
    <polygon points="2515,164 2517,116 2519,164" />
    <polygon points="2555,158 2557,118 2559,158" />
    <polygon points="2595,156 2598,109 2601,156" />
    <polygon points="2635,160 2638,111 2641,160" />
    <polygon points="2675,163 2678,116 2681,163" />
    <polygon points="2715,165 2717,122 2719,165" />
    <polygon points="2755,167 2759,132 2763,167" />
    <polygon points="2795,157 2798,121 2801,157" />
    <polygon points="2835,151 2839,114 2843,151" />
    <polygon points="2875,156 2877,121 2879,156" />
    <polygon points="2915,154 2919,119 2923,154" />
    <polygon points="2955,165 2957,123 2959,165" />
    <polygon points="2995,156 2999,118 3003,156" />
    <polygon points="3035,158 3039,109 3043,158" />
    <polygon points="3075,169 3077,123 3079,169" />
    <polygon points="3115,159 3117,121 3119,159" />
    <polygon points="3155,150 3159,112 3163,150" />
    <polygon points="3195,162 3199,118 3203,162" />
    <polygon points="3235,156 3239,109 3243,156" />
    <polygon points="3275,170 3279,133 3283,170" />
    <polygon points="3315,159 3317,117 3319,159" />
    <polygon points="3355,151 3359,113 3363,151" />
    <polygon points="3395,163 3399,117 3403,163" />
    <polygon points="3435,166 3437,120 3439,166" />
    <polygon points="3475,163 3477,118 3479,163" />
    <polygon points="3515,163 3517,113 3519,163" />
    <polygon points="3555,164 3559,118 3563,164" />
    <polygon points="3595,155 3598,116 3601,155" />
    <polygon points="3635,167 3639,124 3643,167" />
    <polygon points="3675,163 3678,113 3681,163" />
    <polygon points="3715,157 3718,114 3721,157" />
    <polygon points="3755,164 3758,127 3761,164" />
    <polygon points="3795,168 3798,126 3801,168" />
    <polygon points="3835,150 3838,103 3841,150" />
    <polygon points="3875,155 3878,105 3881,155" />
    <polygon points="3915,161 3917,111 3919,161" />
    <polygon points="3955,158 3958,115 3961,158" />
    <polygon points="3995,150 3999,107 4003,150" />
    <polygon points="4035,157 4037,116 4039,157" />
    <polygon points="4075,167 4078,119 4081,167" />
    <polygon points="4115,165 4119,123 4123,165" />
    <polygon points="4155,150 4158,100 4161,150" />
    <polygon points="4195,157 4198,120 4201,157" />
    <polygon points="4235,157 4239,110 4243,157" />
    <polygon points="4275,168 4279,124 4283,168" />
    <polygon points="4315,167 4318,121 4321,167" />
    <polygon points="4355,167 4358,121 4361,167" />
    <polygon points="4395,164 4398,119 4401,164" />
    <polygon points="4435,158 4438,115 4441,158" />
    <polygon points="4475,156 4477,114 4479,156" />
    <polygon points="4515,167 4517,122 4519,167" />
    <polygon points="4555,156 4557,116 4559,156" />
    <polygon points="4595,168 4598,118 4601,168" />
    <polygon points="4635,156 4637,112 4639,156" />
    <polygon points="4675,161 4677,117 4679,161" />
    <polygon points="4715,150 4718,110 4721,150" />
    <polygon points="4755,151 4758,112 4761,151" />
    <polygon points="4795,159 4799,123 4803,159" />
    <polygon points="4835,165 4839,126 4843,165" />
    <polygon points="4875,168 4877,130 4879,168" />
    <polygon points="4915,165 4918,121 4921,165" />
    <polygon points="4955,155 4958,106 4961,155" />
    <polygon points="4995,165 4998,129 5001,165" />
    <polygon points="5035,162 5037,124 5039,162" />
    <polygon points="5075,168 5077,118 5079,168" />
    <polygon points="5115,154 5117,118 5119,154" />
    <polygon points="5155,157 5157,113 5159,157" />
    <polygon points="5195,163 5199,125 5203,163" />
    <polygon points="5235,162 5239,120 5243,162" />
    <polygon points="5275,159 5278,110 5281,159" />
    <polygon points="5315,168 5318,120 5321,168" />
    <polygon points="5355,153 5359,117 5363,153" />
    <polygon points="5395,156 5399,115 5403,156" />
    <polygon points="5435,152 5439,109 5443,152" />
    <polygon points="5475,155 5477,115 5479,155" />
    <polygon points="5515,150 5517,113 5519,150" />
    <polygon points="5555,169 5558,121 5561,169" />
    <polygon points="5595,151 5598,101 5601,151" />
    <polygon points="5635,159 5638,117 5641,159" />
    <polygon points="5675,157 5677,108 5679,157" />
    <polygon points="5715,168 5719,125 5723,168" />
    <polygon points="5755,153 5758,112 5761,153" />
    <rect x="0" y="180" width="5760" height="140" />
  </g>
  <g class="forest-layer-far-far" fill="currentColor" opacity="0.04">
    <polygon points="30,200 33,133 36,200" />
    <polygon points="70,184 74,130 78,184" />
    <polygon points="110,185 113,133 116,185" />
    <polygon points="150,198 155,139 160,198" />
    <polygon points="190,183 194,124 198,183" />
    <polygon points="230,189 235,125 240,189" />
    <polygon points="270,196 274,134 278,196" />
    <polygon points="310,194 314,127 318,194" />
    <polygon points="350,181 355,129 360,181" />
    <polygon points="390,190 395,127 400,190" />
    <polygon points="430,180 434,111 438,180" />
    <polygon points="470,198 473,146 476,198" />
    <polygon points="510,188 513,120 516,188" />
    <polygon points="550,185 553,117 556,185" />
    <polygon points="590,200 595,135 600,200" />
    <polygon points="630,185 634,121 638,185" />
    <polygon points="670,200 674,132 678,200" />
    <polygon points="710,195 713,130 716,195" />
    <polygon points="750,190 754,129 758,190" />
    <polygon points="790,183 795,123 800,183" />
    <polygon points="830,193 834,138 838,193" />
    <polygon points="870,192 874,127 878,192" />
    <polygon points="910,194 913,127 916,194" />
    <polygon points="950,188 954,136 958,188" />
    <polygon points="990,192 993,132 996,192" />
    <polygon points="1030,197 1033,131 1036,197" />
    <polygon points="1070,181 1074,117 1078,181" />
    <polygon points="1110,191 1115,135 1120,191" />
    <polygon points="1150,200 1154,131 1158,200" />
    <polygon points="1190,186 1193,122 1196,186" />
    <polygon points="1230,184 1235,126 1240,184" />
    <polygon points="1270,195 1274,136 1278,195" />
    <polygon points="1310,200 1313,147 1316,200" />
    <polygon points="1350,185 1353,116 1356,185" />
    <polygon points="1390,180 1395,121 1400,180" />
    <polygon points="1430,182 1434,115 1438,182" />
    <polygon points="1470,194 1473,137 1476,194" />
    <polygon points="1510,184 1515,131 1520,184" />
    <polygon points="1550,189 1555,124 1560,189" />
    <polygon points="1590,188 1595,122 1600,188" />
    <polygon points="1630,195 1634,132 1638,195" />
    <polygon points="1670,197 1674,140 1678,197" />
    <polygon points="1710,186 1714,132 1718,186" />
    <polygon points="1750,184 1755,115 1760,184" />
    <polygon points="1790,193 1794,141 1798,193" />
    <polygon points="1830,188 1835,128 1840,188" />
    <polygon points="1870,189 1874,139 1878,189" />
    <polygon points="1910,195 1915,127 1920,195" />
    <polygon points="1950,197 1954,143 1958,197" />
    <polygon points="1990,190 1994,125 1998,190" />
    <polygon points="2030,192 2035,125 2040,192" />
    <polygon points="2070,186 2074,122 2078,186" />
    <polygon points="2110,192 2115,135 2120,192" />
    <polygon points="2150,181 2154,124 2158,181" />
    <polygon points="2190,195 2195,135 2200,195" />
    <polygon points="2230,200 2234,138 2238,200" />
    <polygon points="2270,181 2274,127 2278,181" />
    <polygon points="2310,198 2315,144 2320,198" />
    <polygon points="2350,194 2353,134 2356,194" />
    <polygon points="2390,194 2395,141 2400,194" />
    <polygon points="2430,184 2435,134 2440,184" />
    <polygon points="2470,184 2475,121 2480,184" />
    <polygon points="2510,188 2514,136 2518,188" />
    <polygon points="2550,192 2555,132 2560,192" />
    <polygon points="2590,190 2593,120 2596,190" />
    <polygon points="2630,190 2634,123 2638,190" />
    <polygon points="2670,195 2675,125 2680,195" />
    <polygon points="2710,199 2713,132 2716,199" />
    <polygon points="2750,200 2753,148 2756,200" />
    <polygon points="2790,182 2793,123 2796,182" />
    <polygon points="2830,200 2833,137 2836,200" />
    <polygon points="2870,185 2874,132 2878,185" />
    <polygon points="2910,181 2913,122 2916,181" />
    <polygon points="2950,189 2953,129 2956,189" />
    <polygon points="2990,193 2994,132 2998,193" />
    <polygon points="3030,196 3033,142 3036,196" />
    <polygon points="3070,185 3075,122 3080,185" />
    <polygon points="3110,182 3113,127 3116,182" />
    <polygon points="3150,199 3154,130 3158,199" />
    <polygon points="3190,198 3194,141 3198,198" />
    <polygon points="3230,194 3233,140 3236,194" />
    <polygon points="3270,194 3274,124 3278,194" />
    <polygon points="3310,180 3315,122 3320,180" />
    <polygon points="3350,197 3354,133 3358,197" />
    <polygon points="3390,194 3393,139 3396,194" />
    <polygon points="3430,189 3435,128 3440,189" />
    <polygon points="3470,188 3474,118 3478,188" />
    <polygon points="3510,186 3514,122 3518,186" />
    <polygon points="3550,183 3554,121 3558,183" />
    <polygon points="3590,198 3594,141 3598,198" />
    <polygon points="3630,189 3635,128 3640,189" />
    <polygon points="3670,192 3673,133 3676,192" />
    <polygon points="3710,198 3713,140 3716,198" />
    <polygon points="3750,195 3755,144 3760,195" />
    <polygon points="3790,199 3793,140 3796,199" />
    <polygon points="3830,200 3833,139 3836,200" />
    <polygon points="3870,188 3875,132 3880,188" />
    <polygon points="3910,183 3915,129 3920,183" />
    <polygon points="3950,181 3955,111 3960,181" />
    <polygon points="3990,181 3994,122 3998,181" />
    <polygon points="4030,184 4034,116 4038,184" />
    <polygon points="4070,190 4074,138 4078,190" />
    <polygon points="4110,186 4113,123 4116,186" />
    <polygon points="4150,191 4155,137 4160,191" />
    <polygon points="4190,188 4195,122 4200,188" />
    <polygon points="4230,195 4234,140 4238,195" />
    <polygon points="4270,190 4275,131 4280,190" />
    <polygon points="4310,182 4314,129 4318,182" />
    <polygon points="4350,192 4353,138 4356,192" />
    <polygon points="4390,182 4394,115 4398,182" />
    <polygon points="4430,188 4433,126 4436,188" />
    <polygon points="4470,194 4473,127 4476,194" />
    <polygon points="4510,188 4515,127 4520,188" />
    <polygon points="4550,200 4554,132 4558,200" />
    <polygon points="4590,187 4593,126 4596,187" />
    <polygon points="4630,199 4633,134 4636,199" />
    <polygon points="4670,199 4674,132 4678,199" />
    <polygon points="4710,182 4715,125 4720,182" />
    <polygon points="4750,189 4754,119 4758,189" />
    <polygon points="4790,183 4794,113 4798,183" />
    <polygon points="4830,181 4833,127 4836,181" />
    <polygon points="4870,183 4874,124 4878,183" />
    <polygon points="4910,197 4913,144 4916,197" />
    <polygon points="4950,194 4954,140 4958,194" />
    <polygon points="4990,197 4995,136 5000,197" />
    <polygon points="5030,184 5035,121 5040,184" />
    <polygon points="5070,183 5075,120 5080,183" />
    <polygon points="5110,193 5115,128 5120,193" />
    <polygon points="5150,191 5153,133 5156,191" />
    <polygon points="5190,194 5194,138 5198,194" />
    <polygon points="5230,183 5234,126 5238,183" />
    <polygon points="5270,200 5275,139 5280,200" />
    <polygon points="5310,192 5313,131 5316,192" />
    <polygon points="5350,183 5353,125 5356,183" />
    <polygon points="5390,186 5393,122 5396,186" />
    <polygon points="5430,199 5435,129 5440,199" />
    <polygon points="5470,190 5473,140 5476,190" />
    <polygon points="5510,198 5513,141 5516,198" />
    <polygon points="5550,197 5553,141 5556,197" />
    <polygon points="5590,186 5595,130 5600,186" />
    <polygon points="5630,184 5634,127 5638,184" />
    <polygon points="5670,188 5673,119 5676,188" />
    <polygon points="5710,197 5713,143 5716,197" />
    <polygon points="5750,183 5753,125 5756,183" />
    <rect x="0" y="210" width="5760" height="110" />
  </g>
  <g class="forest-layer-far" fill="currentColor" opacity="0.06">
    <polygon points="20,209 24,128 28,209" />
    <polygon points="60,230 66,170 72,230" />
    <polygon points="100,223 105,138 110,223" />
    <polygon points="140,210 144,140 148,210" />
    <polygon points="180,209 184,141 188,209" />
    <polygon points="220,221 227,138 234,221" />
    <polygon points="260,220 264,157 268,220" />
    <polygon points="300,221 306,147 312,221" />
    <polygon points="340,219 344,141 348,219" />
    <polygon points="380,235 385,159 390,235" />
    <polygon points="420,228 424,149 428,228" />
    <polygon points="460,219 466,134 472,219" />
    <polygon points="500,206 504,126 508,206" />
    <polygon points="540,218 547,143 554,218" />
    <polygon points="580,220 584,139 588,220" />
    <polygon points="620,207 627,125 634,207" />
    <polygon points="660,224 666,162 672,224" />
    <polygon points="700,209 704,145 708,209" />
    <polygon points="740,217 746,149 752,217" />
    <polygon points="780,219 786,140 792,219" />
    <polygon points="820,208 827,132 834,208" />
    <polygon points="860,232 864,147 868,232" />
    <polygon points="900,218 905,138 910,218" />
    <polygon points="940,218 945,144 950,218" />
    <polygon points="980,217 987,147 994,217" />
    <polygon points="1020,215 1024,142 1028,215" />
    <polygon points="1060,226 1066,153 1072,226" />
    <polygon points="1100,235 1106,167 1112,235" />
    <polygon points="1140,207 1147,143 1154,207" />
    <polygon points="1180,207 1184,145 1188,207" />
    <polygon points="1220,228 1224,155 1228,228" />
    <polygon points="1260,230 1266,147 1272,230" />
    <polygon points="1300,223 1304,159 1308,223" />
    <polygon points="1340,226 1346,149 1352,226" />
    <polygon points="1380,216 1387,153 1394,216" />
    <polygon points="1420,232 1427,151 1434,232" />
    <polygon points="1460,235 1464,152 1468,235" />
    <polygon points="1500,216 1506,147 1512,216" />
    <polygon points="1540,209 1545,146 1550,209" />
    <polygon points="1580,212 1587,131 1594,212" />
    <polygon points="1620,232 1626,169 1632,232" />
    <polygon points="1660,208 1666,131 1672,208" />
    <polygon points="1700,223 1706,139 1712,223" />
    <polygon points="1740,232 1747,165 1754,232" />
    <polygon points="1780,224 1784,147 1788,224" />
    <polygon points="1820,205 1826,124 1832,205" />
    <polygon points="1860,227 1866,162 1872,227" />
    <polygon points="1900,234 1906,150 1912,234" />
    <polygon points="1940,205 1946,135 1952,205" />
    <polygon points="1980,223 1985,158 1990,223" />
    <polygon points="2020,207 2027,126 2034,207" />
    <polygon points="2060,207 2064,143 2068,207" />
    <polygon points="2100,217 2105,134 2110,217" />
    <polygon points="2140,215 2147,142 2154,215" />
    <polygon points="2180,214 2186,149 2192,214" />
    <polygon points="2220,229 2226,146 2232,229" />
    <polygon points="2260,233 2264,155 2268,233" />
    <polygon points="2300,210 2305,149 2310,210" />
    <polygon points="2340,226 2344,142 2348,226" />
    <polygon points="2380,219 2386,157 2392,219" />
    <polygon points="2420,220 2427,139 2434,220" />
    <polygon points="2460,218 2467,139 2474,218" />
    <polygon points="2500,229 2505,161 2510,229" />
    <polygon points="2540,216 2544,140 2548,216" />
    <polygon points="2580,214 2584,141 2588,214" />
    <polygon points="2620,221 2627,140 2634,221" />
    <polygon points="2660,206 2666,125 2672,206" />
    <polygon points="2700,224 2707,157 2714,224" />
    <polygon points="2740,211 2744,150 2748,211" />
    <polygon points="2780,229 2785,160 2790,229" />
    <polygon points="2820,214 2826,150 2832,214" />
    <polygon points="2860,205 2864,135 2868,205" />
    <polygon points="2900,210 2907,135 2914,210" />
    <polygon points="2940,222 2947,158 2954,222" />
    <polygon points="2980,221 2985,139 2990,221" />
    <polygon points="3020,207 3026,130 3032,207" />
    <polygon points="3060,218 3064,146 3068,218" />
    <polygon points="3100,234 3107,174 3114,234" />
    <polygon points="3140,223 3146,161 3152,223" />
    <polygon points="3180,227 3187,154 3194,227" />
    <polygon points="3220,214 3227,134 3234,214" />
    <polygon points="3260,205 3267,142 3274,205" />
    <polygon points="3300,230 3305,160 3310,230" />
    <polygon points="3340,231 3347,152 3354,231" />
    <polygon points="3380,207 3386,125 3392,207" />
    <polygon points="3420,212 3424,139 3428,212" />
    <polygon points="3460,221 3467,148 3474,221" />
    <polygon points="3500,232 3507,170 3514,232" />
    <polygon points="3540,212 3546,143 3552,212" />
    <polygon points="3580,207 3585,137 3590,207" />
    <polygon points="3620,221 3624,145 3628,221" />
    <polygon points="3660,233 3665,157 3670,233" />
    <polygon points="3700,216 3706,132 3712,216" />
    <polygon points="3740,212 3745,129 3750,212" />
    <polygon points="3780,213 3785,150 3790,213" />
    <polygon points="3820,224 3825,158 3830,224" />
    <polygon points="3860,210 3864,146 3868,210" />
    <polygon points="3900,219 3907,135 3914,219" />
    <polygon points="3940,226 3947,142 3954,226" />
    <polygon points="3980,232 3986,154 3992,232" />
    <polygon points="4020,209 4026,129 4032,209" />
    <polygon points="4060,220 4064,146 4068,220" />
    <polygon points="4100,230 4106,156 4112,230" />
    <polygon points="4140,216 4144,148 4148,216" />
    <polygon points="4180,214 4184,138 4188,214" />
    <polygon points="4220,206 4227,132 4234,206" />
    <polygon points="4260,231 4266,170 4272,231" />
    <polygon points="4300,225 4304,156 4308,225" />
    <polygon points="4340,219 4347,157 4354,219" />
    <polygon points="4380,219 4384,141 4388,219" />
    <polygon points="4420,215 4425,130 4430,215" />
    <polygon points="4460,221 4467,142 4474,221" />
    <polygon points="4500,219 4504,155 4508,219" />
    <polygon points="4540,227 4546,164 4552,227" />
    <polygon points="4580,206 4585,144 4590,206" />
    <polygon points="4620,219 4627,152 4634,219" />
    <polygon points="4660,216 4665,140 4670,216" />
    <polygon points="4700,217 4706,146 4712,217" />
    <polygon points="4740,226 4746,153 4752,226" />
    <polygon points="4780,230 4784,151 4788,230" />
    <polygon points="4820,207 4826,127 4832,207" />
    <polygon points="4860,222 4864,152 4868,222" />
    <polygon points="4900,214 4907,133 4914,214" />
    <polygon points="4940,215 4945,147 4950,215" />
    <polygon points="4980,234 4985,172 4990,234" />
    <polygon points="5020,235 5026,164 5032,235" />
    <polygon points="5060,209 5067,129 5074,209" />
    <polygon points="5100,214 5104,135 5108,214" />
    <polygon points="5140,225 5147,148 5154,225" />
    <polygon points="5180,231 5186,146 5192,231" />
    <polygon points="5220,225 5224,161 5228,225" />
    <polygon points="5260,221 5267,140 5274,221" />
    <polygon points="5300,216 5304,145 5308,216" />
    <polygon points="5340,235 5345,166 5350,235" />
    <polygon points="5380,235 5386,169 5392,235" />
    <polygon points="5420,211 5427,127 5434,211" />
    <polygon points="5460,209 5465,142 5470,209" />
    <polygon points="5500,232 5506,170 5512,232" />
    <polygon points="5540,221 5544,136 5548,221" />
    <polygon points="5580,226 5584,142 5588,226" />
    <polygon points="5620,224 5625,154 5630,224" />
    <polygon points="5660,210 5665,138 5670,210" />
    <polygon points="5700,228 5705,163 5710,228" />
    <polygon points="5740,218 5744,144 5748,218" />
    <rect x="0" y="240" width="5760" height="80" />
  </g>
  <g class="forest-layer-mid" fill="currentColor" opacity="0.09">
    <polygon points="10,249 17,168 24,249" />
    <polygon points="50,259 58,170 66,259" />
    <polygon points="90,242 99,149 108,242" />
    <polygon points="130,244 137,157 144,244" />
    <polygon points="170,263 179,168 188,263" />
    <polygon points="210,256 218,180 226,256" />
    <polygon points="250,249 259,161 268,249" />
    <polygon points="290,259 298,165 306,259" />
    <polygon points="330,251 340,169 350,251" />
    <polygon points="370,261 377,178 384,261" />
    <polygon points="410,239 420,163 430,239" />
    <polygon points="450,255 456,177 462,255" />
    <polygon points="490,252 498,167 506,252" />
    <polygon points="530,262 540,189 550,262" />
    <polygon points="570,237 578,164 586,237" />
    <polygon points="610,243 617,149 624,243" />
    <polygon points="650,239 660,155 670,239" />
    <polygon points="690,265 696,182 702,265" />
    <polygon points="730,263 739,186 748,263" />
    <polygon points="770,248 776,167 782,248" />
    <polygon points="810,251 819,180 828,251" />
    <polygon points="850,247 857,166 864,247" />
    <polygon points="890,242 898,170 906,242" />
    <polygon points="930,264 938,194 946,264" />
    <polygon points="970,260 978,187 986,260" />
    <polygon points="1010,236 1017,162 1024,236" />
    <polygon points="1050,257 1059,178 1068,257" />
    <polygon points="1090,249 1099,175 1108,249" />
    <polygon points="1130,263 1136,174 1142,263" />
    <polygon points="1170,243 1176,171 1182,243" />
    <polygon points="1210,252 1217,176 1224,252" />
    <polygon points="1250,251 1260,158 1270,251" />
    <polygon points="1290,259 1296,176 1302,259" />
    <polygon points="1330,244 1337,165 1344,244" />
    <polygon points="1370,242 1376,169 1382,242" />
    <polygon points="1410,249 1420,166 1430,249" />
    <polygon points="1450,261 1456,189 1462,261" />
    <polygon points="1490,252 1500,167 1510,252" />
    <polygon points="1530,253 1540,183 1550,253" />
    <polygon points="1570,244 1577,167 1584,244" />
    <polygon points="1610,254 1616,171 1622,254" />
    <polygon points="1650,253 1657,172 1664,253" />
    <polygon points="1690,256 1697,173 1704,256" />
    <polygon points="1730,251 1736,160 1742,251" />
    <polygon points="1770,265 1776,184 1782,265" />
    <polygon points="1810,251 1820,165 1830,251" />
    <polygon points="1850,252 1860,157 1870,252" />
    <polygon points="1890,262 1899,192 1908,262" />
    <polygon points="1930,255 1936,170 1942,255" />
    <polygon points="1970,243 1978,161 1986,243" />
    <polygon points="2010,246 2016,153 2022,246" />
    <polygon points="2050,246 2056,151 2062,246" />
    <polygon points="2090,259 2096,182 2102,259" />
    <polygon points="2130,239 2138,151 2146,239" />
    <polygon points="2170,252 2178,181 2186,252" />
    <polygon points="2210,261 2217,181 2224,261" />
    <polygon points="2250,257 2259,163 2268,257" />
    <polygon points="2290,260 2297,175 2304,260" />
    <polygon points="2330,257 2336,183 2342,257" />
    <polygon points="2370,236 2379,142 2388,236" />
    <polygon points="2410,236 2417,157 2424,236" />
    <polygon points="2450,263 2457,168 2464,263" />
    <polygon points="2490,264 2498,193 2506,264" />
    <polygon points="2530,247 2540,168 2550,247" />
    <polygon points="2570,243 2579,156 2588,243" />
    <polygon points="2610,244 2617,173 2624,244" />
    <polygon points="2650,262 2656,181 2662,262" />
    <polygon points="2690,243 2698,153 2706,243" />
    <polygon points="2730,248 2738,175 2746,248" />
    <polygon points="2770,263 2779,181 2788,263" />
    <polygon points="2810,240 2818,158 2826,240" />
    <polygon points="2850,246 2859,161 2868,246" />
    <polygon points="2890,243 2900,148 2910,243" />
    <polygon points="2930,258 2936,163 2942,258" />
    <polygon points="2970,248 2976,165 2982,248" />
    <polygon points="3010,252 3017,163 3024,252" />
    <polygon points="3050,238 3058,159 3066,238" />
    <polygon points="3090,256 3098,184 3106,256" />
    <polygon points="3130,249 3138,170 3146,249" />
    <polygon points="3170,240 3179,151 3188,240" />
    <polygon points="3210,246 3219,154 3228,246" />
    <polygon points="3250,258 3256,174 3262,258" />
    <polygon points="3290,248 3300,167 3310,248" />
    <polygon points="3330,237 3336,159 3342,237" />
    <polygon points="3370,246 3379,155 3388,246" />
    <polygon points="3410,265 3417,179 3424,265" />
    <polygon points="3450,262 3457,192 3464,262" />
    <polygon points="3490,236 3499,147 3508,236" />
    <polygon points="3530,242 3536,168 3542,242" />
    <polygon points="3570,246 3578,152 3586,246" />
    <polygon points="3610,236 3620,154 3630,236" />
    <polygon points="3650,256 3657,167 3664,256" />
    <polygon points="3690,246 3698,162 3706,246" />
    <polygon points="3730,253 3736,169 3742,253" />
    <polygon points="3770,246 3780,172 3790,246" />
    <polygon points="3810,255 3818,173 3826,255" />
    <polygon points="3850,265 3857,187 3864,265" />
    <polygon points="3890,258 3896,185 3902,258" />
    <polygon points="3930,251 3939,176 3948,251" />
    <polygon points="3970,238 3980,156 3990,238" />
    <polygon points="4010,257 4018,179 4026,257" />
    <polygon points="4050,254 4057,170 4064,254" />
    <polygon points="4090,241 4099,162 4108,241" />
    <polygon points="4130,262 4137,189 4144,262" />
    <polygon points="4170,240 4179,168 4188,240" />
    <polygon points="4210,237 4219,145 4228,237" />
    <polygon points="4250,256 4258,161 4266,256" />
    <polygon points="4290,252 4296,171 4302,252" />
    <polygon points="4330,263 4338,176 4346,263" />
    <polygon points="4370,257 4377,178 4384,257" />
    <polygon points="4410,260 4417,168 4424,260" />
    <polygon points="4450,242 4460,161 4470,242" />
    <polygon points="4490,260 4497,187 4504,260" />
    <polygon points="4530,260 4537,186 4544,260" />
    <polygon points="4570,246 4576,161 4582,246" />
    <polygon points="4610,246 4620,159 4630,246" />
    <polygon points="4650,239 4660,155 4670,239" />
    <polygon points="4690,237 4696,148 4702,237" />
    <polygon points="4730,257 4739,178 4748,257" />
    <polygon points="4770,251 4779,158 4788,251" />
    <polygon points="4810,261 4819,178 4828,261" />
    <polygon points="4850,239 4856,151 4862,239" />
    <polygon points="4890,249 4896,169 4902,249" />
    <polygon points="4930,246 4940,162 4950,246" />
    <polygon points="4970,255 4980,181 4990,255" />
    <polygon points="5010,259 5017,171 5024,259" />
    <polygon points="5050,251 5059,177 5068,251" />
    <polygon points="5090,251 5096,180 5102,251" />
    <polygon points="5130,240 5138,166 5146,240" />
    <polygon points="5170,264 5178,189 5186,264" />
    <polygon points="5210,246 5217,154 5224,246" />
    <polygon points="5250,262 5258,176 5266,262" />
    <polygon points="5290,241 5298,169 5306,241" />
    <polygon points="5330,243 5340,153 5350,243" />
    <polygon points="5370,254 5378,180 5386,254" />
    <polygon points="5410,251 5416,164 5422,251" />
    <polygon points="5450,253 5457,163 5464,253" />
    <polygon points="5490,240 5497,152 5504,240" />
    <polygon points="5530,258 5540,167 5550,258" />
    <polygon points="5570,261 5578,172 5586,261" />
    <polygon points="5610,261 5616,173 5622,261" />
    <polygon points="5650,236 5656,166 5662,236" />
    <polygon points="5690,243 5700,153 5710,243" />
    <polygon points="5730,259 5737,169 5744,259" />
    <rect x="0" y="265" width="5760" height="55" />
  </g>
  <g class="forest-layer-near" fill="currentColor" opacity="0.11">
    <polygon points="0,284 12,186 24,284" />
    <polygon points="40,280 49,180 58,280" />
    <polygon points="80,274 93,174 106,274" />
    <polygon points="120,280 131,180 142,280" />
    <polygon points="160,277 174,190 188,277" />
    <polygon points="200,267 212,178 224,267" />
    <polygon points="240,270 249,168 258,270" />
    <polygon points="280,280 292,186 304,280" />
    <polygon points="320,275 330,181 340,275" />
    <polygon points="360,275 370,176 380,275" />
    <polygon points="400,288 411,186 422,288" />
    <polygon points="440,269 452,178 464,269" />
    <polygon points="480,281 491,177 502,281" />
    <polygon points="520,275 529,178 538,275" />
    <polygon points="560,268 572,181 584,268" />
    <polygon points="600,272 612,184 624,272" />
    <polygon points="640,266 649,182 658,266" />
    <polygon points="680,292 692,203 704,292" />
    <polygon points="720,272 732,173 744,272" />
    <polygon points="760,294 771,209 782,294" />
    <polygon points="800,275 814,177 828,275" />
    <polygon points="840,280 850,194 860,280" />
    <polygon points="880,280 892,184 904,280" />
    <polygon points="920,265 932,176 944,265" />
    <polygon points="960,281 972,199 984,281" />
    <polygon points="1000,271 1010,177 1020,271" />
    <polygon points="1040,266 1051,168 1062,266" />
    <polygon points="1080,280 1091,199 1102,280" />
    <polygon points="1120,286 1134,187 1148,286" />
    <polygon points="1160,282 1171,187 1182,282" />
    <polygon points="1200,278 1209,198 1218,278" />
    <polygon points="1240,288 1251,204 1262,288" />
    <polygon points="1280,276 1292,185 1304,276" />
    <polygon points="1320,266 1332,185 1344,266" />
    <polygon points="1360,271 1373,173 1386,271" />
    <polygon points="1400,274 1413,183 1426,274" />
    <polygon points="1440,281 1452,199 1464,281" />
    <polygon points="1480,273 1493,179 1506,273" />
    <polygon points="1520,284 1534,185 1548,284" />
    <polygon points="1560,268 1570,185 1580,268" />
    <polygon points="1600,290 1611,198 1622,290" />
    <polygon points="1640,295 1653,205 1666,295" />
    <polygon points="1680,271 1690,180 1700,271" />
    <polygon points="1720,277 1733,178 1746,277" />
    <polygon points="1760,266 1769,170 1778,266" />
    <polygon points="1800,287 1810,206 1820,287" />
    <polygon points="1840,281 1852,191 1864,281" />
    <polygon points="1880,284 1890,190 1900,284" />
    <polygon points="1920,275 1930,179 1940,275" />
    <polygon points="1960,270 1971,171 1982,270" />
    <polygon points="2000,288 2013,196 2026,288" />
    <polygon points="2040,275 2053,186 2066,275" />
    <polygon points="2080,282 2093,186 2106,282" />
    <polygon points="2120,283 2134,188 2148,283" />
    <polygon points="2160,291 2172,202 2184,291" />
    <polygon points="2200,275 2211,195 2222,275" />
    <polygon points="2240,278 2249,177 2258,278" />
    <polygon points="2280,290 2291,192 2302,290" />
    <polygon points="2320,285 2334,182 2348,285" />
    <polygon points="2360,280 2373,200 2386,280" />
    <polygon points="2400,290 2414,202 2428,290" />
    <polygon points="2440,283 2453,179 2466,283" />
    <polygon points="2480,266 2494,179 2508,266" />
    <polygon points="2520,270 2532,172 2544,270" />
    <polygon points="2560,288 2574,192 2588,288" />
    <polygon points="2600,269 2612,170 2624,269" />
    <polygon points="2640,266 2650,165 2660,266" />
    <polygon points="2680,268 2694,170 2708,268" />
    <polygon points="2720,279 2729,193 2738,279" />
    <polygon points="2760,269 2772,179 2784,269" />
    <polygon points="2800,271 2814,178 2828,271" />
    <polygon points="2840,289 2853,196 2866,289" />
    <polygon points="2880,292 2892,193 2904,292" />
    <polygon points="2920,266 2934,163 2948,266" />
    <polygon points="2960,281 2970,179 2980,281" />
    <polygon points="3000,275 3013,189 3026,275" />
    <polygon points="3040,281 3052,180 3064,281" />
    <polygon points="3080,295 3091,203 3102,295" />
    <polygon points="3120,294 3132,209 3144,294" />
    <polygon points="3160,282 3171,185 3182,282" />
    <polygon points="3200,289 3214,198 3228,289" />
    <polygon points="3240,285 3254,182 3268,285" />
    <polygon points="3280,273 3294,168 3308,273" />
    <polygon points="3320,271 3332,172 3344,271" />
    <polygon points="3360,282 3371,195 3382,282" />
    <polygon points="3400,295 3410,206 3420,295" />
    <polygon points="3440,287 3451,198 3462,287" />
    <polygon points="3480,287 3494,201 3508,287" />
    <polygon points="3520,280 3531,185 3542,280" />
    <polygon points="3560,294 3573,203 3586,294" />
    <polygon points="3600,273 3614,168 3628,273" />
    <polygon points="3640,283 3649,194 3658,283" />
    <polygon points="3680,277 3693,176 3706,277" />
    <polygon points="3720,295 3731,203 3742,295" />
    <polygon points="3760,274 3770,170 3780,274" />
    <polygon points="3800,295 3811,214 3822,295" />
    <polygon points="3840,276 3849,174 3858,276" />
    <polygon points="3880,273 3894,179 3908,273" />
    <polygon points="3920,271 3932,168 3944,271" />
    <polygon points="3960,273 3973,187 3986,273" />
    <polygon points="4000,273 4014,176 4028,273" />
    <polygon points="4040,284 4049,200 4058,284" />
    <polygon points="4080,272 4093,169 4106,272" />
    <polygon points="4120,286 4129,199 4138,286" />
    <polygon points="4160,285 4170,189 4180,285" />
    <polygon points="4200,268 4209,181 4218,268" />
    <polygon points="4240,287 4251,194 4262,287" />
    <polygon points="4280,286 4289,191 4298,286" />
    <polygon points="4320,265 4330,161 4340,265" />
    <polygon points="4360,278 4370,181 4380,278" />
    <polygon points="4400,280 4412,180 4424,280" />
    <polygon points="4440,289 4450,189 4460,289" />
    <polygon points="4480,274 4491,185 4502,274" />
    <polygon points="4520,294 4529,194 4538,294" />
    <polygon points="4560,285 4569,181 4578,285" />
    <polygon points="4600,282 4610,184 4620,282" />
    <polygon points="4640,292 4654,189 4668,292" />
    <polygon points="4680,278 4690,197 4700,278" />
    <polygon points="4720,291 4729,206 4738,291" />
    <polygon points="4760,270 4772,178 4784,270" />
    <polygon points="4800,293 4811,190 4822,293" />
    <polygon points="4840,274 4849,193 4858,274" />
    <polygon points="4880,268 4893,170 4906,268" />
    <polygon points="4920,279 4931,189 4942,279" />
    <polygon points="4960,281 4973,181 4986,281" />
    <polygon points="5000,292 5010,197 5020,292" />
    <polygon points="5040,273 5052,177 5064,273" />
    <polygon points="5080,275 5089,189 5098,275" />
    <polygon points="5120,279 5134,194 5148,279" />
    <polygon points="5160,287 5171,187 5182,287" />
    <polygon points="5200,288 5209,203 5218,288" />
    <polygon points="5240,283 5251,193 5262,283" />
    <polygon points="5280,270 5290,169 5300,270" />
    <polygon points="5320,293 5334,194 5348,293" />
    <polygon points="5360,281 5372,189 5384,281" />
    <polygon points="5400,277 5409,187 5418,277" />
    <polygon points="5440,270 5449,169 5458,270" />
    <polygon points="5480,275 5492,191 5504,275" />
    <polygon points="5520,273 5529,186 5538,273" />
    <polygon points="5560,279 5570,187 5580,279" />
    <polygon points="5600,295 5611,191 5622,295" />
    <polygon points="5640,283 5651,193 5662,283" />
    <polygon points="5680,265 5693,162 5706,265" />
    <polygon points="5720,276 5734,188 5748,276" />
    <rect x="0" y="290" width="5760" height="30" />
  </g>
</svg>