<svg xmlns="http://www.w3.org/2000/svg" viewBox="0 0 5760 320" preserveAspectRatio="none">
  <path class="wave-layer" d="M0,160 Q180,100 360,160 Q540,220 720,160 Q900,100 1080,160 Q1260,220 1440,160 Q1620,100 1800,160 Q1980,220 2160,160 Q2340,100 2520,160 Q2700,220 2880,160 Q3060,100 3240,160 Q3420,220 3600,160 Q3780,100 3960,160 Q4140,220 4320,160 Q4500,100 4680,160 Q4860,220 5040,160 Q5220,100 5400,160 Q5580,220 5760,160 L5760,320 L0,320 Z" fill="currentColor" opacity="0.1"/>
  <path class="wave-layer" d="M0,200 Q200,130 400,200 Q600,270 800,200 Q1000,130 1200,200 Q1400,270 1600,200 Q1800,130 2000,200 Q2200,270 2400,200 Q2600,130 2800,200 Q3000,270 3200,200 Q3400,130 3600,200 Q3800,270 4000,200 Q4200,130 4400,200 Q4600,270 4800,200 Q5000,130 5200,200 Q5400,270 5760,200 L5760,320 L0,320 Z" fill="currentColor" opacity="0.15"/>
  <path class="wave-layer" d="M0,240 Q240,160 480,240 Q720,310 960,240 Q1200,160 1440,240 Q1680,310 1920,240 Q2160,160 2400,240 Q2640,310 2880,240 Q3120,160 3360,240 Q3600,310 3840,240 Q4080,160 4320,240 Q4560,310 4800,240 Q5040,160 5280,240 Q5520,310 5760,240 L5760,320 L0,320 Z" fill="currentColor" opacity="0.2"/>
</svg>